PathFileType	4	(X/Y/Z)	6_coords_data.trc
DataRate	CameraRate	NumFrames	NumMarkers	Units	OrigDataRate	OrigDataStartFrame	OrigNumFrames
30.0	30.0	6	21	m	30.0	59	68
Frame#	Time	THUMB_TIP	THUMB_IP	THUMB_MCP	THUMB_CMC	INDEX_TIP	INDEX_DIP	INDEX_PIP	INDEX_MCP	MIDDLE_TIP	MIDDLE_DIP	MIDDLE_PIP	MIDDLE_MCP	RING_TIP	RING_DIP	RING_PIP	RING_MCP	PINKY_TIP	PINKY_DIP	PINKY_PIP	PINKY_MCP	WRIST
X1	Y1	Z1	X2	Y2	Z2	X3	Y3	Z3	X4	Y4	Z4	X5	Y5	Z5	X6	Y6	Z6	X7	Y7	Z7	X8	Y8	Z8	X9	Y9	Z9	X10	Y10	Z10	X11	Y11	Z11	X12	Y12	Z12	X13	Y13	Z13	X14	Y14	Z14	X15	Y15	Z15	X16	Y16	Z16	X17	Y17	Z17	X18	Y18	Z18	X19	Y19	Z19	X20	Y20	Z20	X21	Y21	Z21
57	1.9333333333333247	0.5413974929066401	-0.02673929504254069	-0.14403530559932323	0.5266317393770079	-0.02725816653662627	-0.1264369166084304	0.4988705562376111	-0.03325034012676997	-0.11369994026526081	0.48070000473187124	-0.028478761549072584	-0.07324066325918827	0.5732676385182518	0.016366677959273046	-0.15322961080569467	0.5557720306279422	0.018907627038949215	-0.14929930772284886	0.5317939369492293	0.019928502899780765	-0.1418147456774358	0.49508893332651094	0.011581207349212086	-0.12189737988655613	0.587440215649799	0.018473313658942336	-0.13385367145750326	0.5704301410977969	0.023409635824223396	-0.1300734482873867	0.5429053980773281	0.028688337907987083	-0.1220776133736316	0.502275148707268	0.025671714639601384	-0.10374101769222527	0.5919495269721611	0.015078429499117418	-0.11177582122001348	0.5753800625417372	0.01964765600770324	-0.10633752942918803	0.552160282472391	0.024557474211069574	-0.09879329469390258	0.5144807380455212	0.028218431186118664	-0.08459575406848502	0.5886839731624884	0.002753288231923001	-0.08680206538129831	0.574428483578038	0.009658610953020452	-0.08031380407143124	0.5558135529974856	0.016578463518876263	-0.07350116736102061	0.5211754165641417	0.019925397139928358	-0.06402060879301819	0.4622830810018609	-0.023011742144276925	-0.051989820119430985
58	1.966666666666658	0.5423729782751152	-0.02478071382681668	-0.14306589787350754	0.5272893917015424	-0.025815017903447757	-0.12576226729623852	0.49947735893275014	-0.032462614695171754	-0.11346916800589307	0.48089660496150166	-0.02819594766517819	-0.07314000815455102	0.5737885428136997	0.017725519370278886	-0.15145709062905677	0.5562113966657871	0.020212534964902495	-0.14787118952514716	0.532087611298475	0.021089220330515857	-0.1408509163594095	0.4951846391727698	0.01218622460247254	-0.12154953274693553	0.5875524500861021	0.019594382379193753	-0.13221209780272927	0.5704725162769537	0.024471270348308205	-0.12867772023209334	0.5428206276889573	0.029639308555638122	-0.121057091084535	0.5019511912610641	0.02639878738854784	-0.10329938544354511	0.5917540541551992	0.016471644442671463	-0.11050152583377781	0.5751264401755389	0.02102750399554565	-0.10523212386791003	0.5518121933608295	0.025813847553603164	-0.09790294998492319	0.5139685106531174	0.029075767489080584	-0.08404883899025595	0.5882881985605858	0.003922408415635736	-0.08612017348126572	0.5740524851127743	0.010875633127511164	-0.07963965430931969	0.5554148615955093	0.01777081581919604	-0.07286414958443138	0.5207082893962234	0.02070026674473524	-0.06349635291442302	0.4622830810018609	-0.023011742144276925	-0.051989820119430985
60	2.000000000000001	0.543208504248711	-0.023272217553676477	-0.14223463548947574	0.5278768495244844	-0.02468366212032591	-0.12517743209465232	0.49999918777034813	-0.031745772602219224	-0.11327018343413042	0.4810444854558984	-0.027949308626660785	-0.07306824167191103	0.5741653851638289	0.019134987199642017	-0.15003450202158947	0.5565337744041734	0.021563333554690756	-0.1466834669576249	0.5323144430878729	0.022296256041213547	-0.13998297084017072	0.49530297320018357	0.012847544989043391	-0.12115456012111991	0.587649722376824	0.02079433061061453	-0.13089745459321267	0.5705216415076748	0.025600703647586598	-0.1275022191125199	0.5427813546916372	0.03063464403684113	-0.12011672782747962	0.5017528710554979	0.027077601456861222	-0.10279163332259258	0.5916651796897809	0.01781801280622075	-0.1094119017888969	0.5749933651349893	0.022327823889232157	-0.10424351679489832	0.5516061118089078	0.026973353387817922	-0.0970577380243364	0.5136327454412659	0.02976373159494783	-0.08345780897415297	0.5879950809281433	0.004825182931789795	-0.08550240568146927	0.5737853226477316	0.011810765427714864	-0.07899975954278879	0.5551406523280216	0.018688777138219925	-0.07222619013076678	0.5203863943877002	0.021270241041011828	-0.06293312550513355	0.4622830810018609	-0.023011742144276925	-0.05198982011943096
61	2.033333333333334	0.5437794241528321	-0.021957317337920945	-0.14164605630226065	0.5282772534430403	-0.023696518440129655	-0.12477424896544731	0.5003581939469615	-0.031064808558833312	-0.11315295740293072	0.4811380274422855	-0.02772133386213793	-0.07303692100244505	0.5744462962448443	0.020517635839683246	-0.1488347808772093	0.5567742564793386	0.02288024604278316	-0.145654044554501	0.5324852581993025	0.023462938972448666	-0.13919534000156514	0.49541048029903767	0.013499769615427759	-0.12076080192735902	0.5877346781738255	0.0219605988697541	-0.12977001820137413	0.5705672392201574	0.026688626617859423	-0.1264647506803976	0.5427573414341119	0.03158374409656517	-0.11924969974506988	0.501610585742257	0.027703935076897168	-0.10227797328587562	0.5916157020111754	0.019153778628492435	-0.10844612273346446	0.5749022106076869	0.023587243011230608	-0.10334675035320962	0.5514504133606805	0.02806744026665231	-0.0962671304878624	0.5133707942946781	0.030360137592868264	-0.08287284122868488	0.5877816376935971	0.005660820760679308	-0.0849184395003468	0.5735853844761369	0.012650430000867963	-0.07839067133234162	0.5549266321194419	0.019485096874375607	-0.07161200566572937	0.5201327279359198	0.021732982221107977	-0.06238082512715082	0.4622830810018609	-0.023011742144276925	-0.051989820119430985
62	2.0666666666666678	0.5441316060297087	-0.020855085534721485	-0.14126901561513894	0.528520431685202	-0.02286735097306869	-0.12452858481449802	0.5005756915782447	-0.03044524337885335	-0.11310549210538626	0.4811854911770058	-0.027518591022757777	-0.07303873737797717	0.5746267183728743	0.02180208937915251	-0.14787961376447128	0.5569273162003553	0.024103463296796024	-0.14480799516402257	0.5325918225861311	0.02454438745051879	-0.13851520806745546	0.4954921848119169	0.014119699239442784	-0.12038846410379914	0.5877962280790002	0.02301706471766074	-0.1288465479059197	0.5705996158277501	0.027671406935967924	-0.12558869192459743	0.542739453909106	0.032441830168303154	-0.11848489082579627	0.5015107892755181	0.02826489628623463	-0.10178464062180323	0.5915827630895697	0.020417521528884097	-0.10763667616070058	0.5748330735095418	0.024756808346091064	-0.10257520514026386	0.5513287585532801	0.029065150795288375	-0.09556340488802453	0.5131697705710143	0.030866386635526544	-0.0823207458039456	0.5876332896336569	0.006438482773507226	-0.08440787541101763	0.5734413718287025	0.013408412529062996	-0.0778497088821748	0.5547633131167853	0.020174712552927576	-0.07105564340256537	0.5199393005853656	0.022098024486589596	-0.06186475261780605	0.462283081001861	-0.023011742144276925	-0.05198982011943101
63	2.1000000000000014	0.544306885270191	-0.019985937884659077	-0.14107059291126203	0.5286336104669676	-0.02221066918351189	-0.12441529262605128	0.50067265031332	-0.029912247539858106	-0.11311527501070237	0.4811948768968082	-0.027347685498356866	-0.07306618807641233	0.5747016208143575	0.022917640277342666	-0.1471915282250501	0.5569875481598555	0.02517380383508372	-0.14417136995241836	0.5326265488709434	0.025496402682745223	-0.13797076702777394	0.49553348545129317	0.01468454595395896	-0.12005863442939205	0.5878234414762832	0.023888116615909838	-0.12814452600560208	0.570609444369294	0.028485934837617966	-0.12489824025097535	0.5427191362777265	0.03316463815299808	-0.11785196465005718	0.5014402677414217	0.028747840069708097	-0.10133849051364624	0.5915452543922708	0.02154779502911819	-0.10701699218469318	0.5747677757676193	0.02578757742700266	-0.10196323554057626	0.5512262334346616	0.029935608837712624	-0.0949797121460908	0.513016852583322	0.03128368366426437	-0.08182879038298596	0.5875349911666401	0.007167290736500909	-0.08401052324817149	0.5733416497714853	0.014098448147223608	-0.07741445495043772	0.5546409658269537	0.02077250569408884	-0.07059145012354029	0.5197980413271277	0.022374626760307437	-0.06141064017078479	0.462283081001861	-0.023011742144276925	-0.051989820119430985
